<?xml version="1.0" encoding="UTF-8"?>
<!DOCTYPE svg PUBLIC "-//W3C//DTD SVG 1.1//EN" "http://www.w3.org/Graphics/SVG/1.1/DTD/svg11.dtd">
<!-- Creator: CorelDRAW 2026 -->
<svg xmlns="http://www.w3.org/2000/svg" xml:space="preserve" width="125px" height="125px" version="1.1" style="shape-rendering:geometricPrecision; text-rendering:geometricPrecision; image-rendering:optimizeQuality; fill-rule:evenodd; clip-rule:evenodd"
viewBox="0 0 125 125"
 xmlns:xlink="http://www.w3.org/1999/xlink"
 xmlns:xodm="http://www.corel.com/coreldraw/odm/2003">
 <defs>
  <style type="text/css">
   <![CDATA[
    .fil0 {fill:currentColor;fill-rule:nonzero}
   ]]>
  </style>
 </defs>
 <g id="Camada_x0020_1">
  <metadata id="CorelCorpID_0Corel-Layer"/>
  <path id="icon-loading_x0020_3.svg" class="fil0" d="M37.63 120.57c-7.61,-3.28 -14.22,-7.73 -19.84,-13.36 -5.63,-5.62 -10.08,-12.23 -13.36,-19.84 -3.28,-7.6 -4.93,-15.73 -4.93,-24.37 0,-8.65 1.64,-16.77 4.93,-24.38 3.28,-7.6 7.73,-14.22 13.36,-19.84 5.62,-5.63 12.23,-10.08 19.84,-13.36 7.6,-3.28 15.73,-4.92 24.37,-4.92 8.65,0 16.77,1.64 24.38,4.92 7.6,3.28 14.22,7.73 19.84,13.36 5.63,5.62 10.08,12.24 13.36,19.84 3.28,7.61 4.92,15.73 4.92,24.38 0,8.64 -1.64,16.77 -4.92,24.37 -3.28,7.61 -7.73,14.22 -13.36,19.84 -5.62,5.63 -12.24,10.08 -19.84,13.36 -7.61,3.28 -15.73,4.93 -24.38,4.93 -8.64,0 -16.77,-1.64 -24.37,-4.93zm24.37 -4.45c7.09,0 13.89,-1.34 20.41,-4.03 6.53,-2.69 12.28,-6.55 17.25,-11.59l-37.66 -37.5 0 -53.13c-14.79,0 -27.34,5.16 -37.65,15.47 -10.31,10.31 -15.47,22.86 -15.47,37.66 0,14.79 5.15,27.34 15.44,37.65 10.29,10.31 22.85,15.47 37.68,15.47z"/>
 </g>
</svg>
